<mxfile host="app.diagrams.net" modified="2024-02-12T03:10:15.991Z" agent="Mozilla/5.0 (Windows NT 10.0; Win64; x64) AppleWebKit/537.36 (KHTML, like Gecko) Chrome/121.0.0.0 Safari/537.36" etag="ovK96r53D2Tp_FgTxFzW" version="23.1.2" type="github">
  <diagram name="Page-1" id="H8Fmk1gkl9ns82ND5phb">
    <mxGraphModel dx="1050" dy="530" grid="1" gridSize="10" guides="1" tooltips="1" connect="1" arrows="1" fold="1" page="1" pageScale="1" pageWidth="827" pageHeight="1169" math="0" shadow="0">
      <root>
        <mxCell id="0" />
        <mxCell id="1" parent="0" />
        <mxCell id="vLL69dcqQMqUbyTp-pWN-5" value="&lt;font style=&quot;font-size: 16px;&quot;&gt;&lt;b&gt;Student&lt;/b&gt;&lt;/font&gt;" style="text;html=1;align=center;verticalAlign=middle;resizable=0;points=[];autosize=1;strokeColor=none;fillColor=none;" vertex="1" parent="1">
          <mxGeometry x="20" y="40" width="80" height="30" as="geometry" />
        </mxCell>
        <mxCell id="vLL69dcqQMqUbyTp-pWN-14" value="&lt;font style=&quot;font-size: 16px;&quot;&gt;&lt;b&gt;Professor&lt;/b&gt;&lt;/font&gt;" style="text;html=1;align=center;verticalAlign=middle;resizable=0;points=[];autosize=1;strokeColor=none;fillColor=none;" vertex="1" parent="1">
          <mxGeometry x="21" y="160" width="100" height="30" as="geometry" />
        </mxCell>
        <mxCell id="vLL69dcqQMqUbyTp-pWN-15" value="" style="group" vertex="1" connectable="0" parent="1">
          <mxGeometry x="30" y="198" width="700" height="40" as="geometry" />
        </mxCell>
        <mxCell id="vLL69dcqQMqUbyTp-pWN-16" value="&lt;u&gt;&lt;font style=&quot;font-size: 16px;&quot;&gt;Ssn&lt;/font&gt;&lt;/u&gt;" style="rounded=0;whiteSpace=wrap;html=1;" vertex="1" parent="vLL69dcqQMqUbyTp-pWN-15">
          <mxGeometry y="-1" width="100" height="40" as="geometry" />
        </mxCell>
        <mxCell id="vLL69dcqQMqUbyTp-pWN-17" value="&lt;font style=&quot;font-size: 16px;&quot;&gt;Name&lt;/font&gt;" style="rounded=0;whiteSpace=wrap;html=1;" vertex="1" parent="vLL69dcqQMqUbyTp-pWN-15">
          <mxGeometry x="100" y="-1" width="100" height="40" as="geometry" />
        </mxCell>
        <mxCell id="vLL69dcqQMqUbyTp-pWN-19" value="&lt;font style=&quot;font-size: 16px;&quot;&gt;Contact&lt;/font&gt;" style="rounded=0;whiteSpace=wrap;html=1;" vertex="1" parent="vLL69dcqQMqUbyTp-pWN-15">
          <mxGeometry x="200" y="-1" width="100" height="40" as="geometry" />
        </mxCell>
        <mxCell id="vLL69dcqQMqUbyTp-pWN-21" value="&lt;span style=&quot;font-size: 16px;&quot;&gt;Gender&lt;/span&gt;" style="rounded=0;whiteSpace=wrap;html=1;" vertex="1" parent="vLL69dcqQMqUbyTp-pWN-15">
          <mxGeometry x="300" y="-1" width="100" height="40" as="geometry" />
        </mxCell>
        <mxCell id="vLL69dcqQMqUbyTp-pWN-25" value="&lt;span style=&quot;font-size: 16px;&quot;&gt;Gender&lt;/span&gt;" style="rounded=0;whiteSpace=wrap;html=1;" vertex="1" parent="vLL69dcqQMqUbyTp-pWN-15">
          <mxGeometry x="400" y="-1" width="100" height="40" as="geometry" />
        </mxCell>
        <mxCell id="vLL69dcqQMqUbyTp-pWN-24" value="" style="group" vertex="1" connectable="0" parent="1">
          <mxGeometry x="20" y="80" width="800" height="40" as="geometry" />
        </mxCell>
        <mxCell id="vLL69dcqQMqUbyTp-pWN-13" value="" style="group" vertex="1" connectable="0" parent="vLL69dcqQMqUbyTp-pWN-24">
          <mxGeometry width="700" height="40" as="geometry" />
        </mxCell>
        <mxCell id="vLL69dcqQMqUbyTp-pWN-6" value="&lt;u&gt;&lt;font style=&quot;font-size: 16px;&quot;&gt;Id&lt;/font&gt;&lt;/u&gt;" style="rounded=0;whiteSpace=wrap;html=1;" vertex="1" parent="vLL69dcqQMqUbyTp-pWN-13">
          <mxGeometry width="100" height="40" as="geometry" />
        </mxCell>
        <mxCell id="vLL69dcqQMqUbyTp-pWN-7" value="&lt;font style=&quot;font-size: 16px;&quot;&gt;Name&lt;/font&gt;" style="rounded=0;whiteSpace=wrap;html=1;" vertex="1" parent="vLL69dcqQMqUbyTp-pWN-13">
          <mxGeometry x="100" width="100" height="40" as="geometry" />
        </mxCell>
        <mxCell id="vLL69dcqQMqUbyTp-pWN-8" value="&lt;font style=&quot;font-size: 16px;&quot;&gt;Ssn&lt;/font&gt;" style="rounded=0;whiteSpace=wrap;html=1;" vertex="1" parent="vLL69dcqQMqUbyTp-pWN-13">
          <mxGeometry x="200" width="100" height="40" as="geometry" />
        </mxCell>
        <mxCell id="vLL69dcqQMqUbyTp-pWN-9" value="&lt;font style=&quot;font-size: 16px;&quot;&gt;Contact&lt;/font&gt;" style="rounded=0;whiteSpace=wrap;html=1;" vertex="1" parent="vLL69dcqQMqUbyTp-pWN-13">
          <mxGeometry x="300" width="100" height="40" as="geometry" />
        </mxCell>
        <mxCell id="vLL69dcqQMqUbyTp-pWN-10" value="&lt;font style=&quot;font-size: 16px;&quot;&gt;birthdate&lt;/font&gt;" style="rounded=0;whiteSpace=wrap;html=1;" vertex="1" parent="vLL69dcqQMqUbyTp-pWN-13">
          <mxGeometry x="400" width="100" height="40" as="geometry" />
        </mxCell>
        <mxCell id="vLL69dcqQMqUbyTp-pWN-11" value="&lt;span style=&quot;font-size: 16px;&quot;&gt;Gender&lt;/span&gt;" style="rounded=0;whiteSpace=wrap;html=1;" vertex="1" parent="vLL69dcqQMqUbyTp-pWN-13">
          <mxGeometry x="500" width="100" height="40" as="geometry" />
        </mxCell>
        <mxCell id="vLL69dcqQMqUbyTp-pWN-12" value="&lt;font style=&quot;font-size: 16px;&quot;&gt;CGPA&lt;/font&gt;" style="rounded=0;whiteSpace=wrap;html=1;" vertex="1" parent="vLL69dcqQMqUbyTp-pWN-13">
          <mxGeometry x="600" width="100" height="40" as="geometry" />
        </mxCell>
        <mxCell id="vLL69dcqQMqUbyTp-pWN-23" value="&lt;font style=&quot;font-size: 16px;&quot;&gt;Image&lt;/font&gt;" style="rounded=0;whiteSpace=wrap;html=1;" vertex="1" parent="vLL69dcqQMqUbyTp-pWN-24">
          <mxGeometry x="700" width="100" height="40" as="geometry" />
        </mxCell>
      </root>
    </mxGraphModel>
  </diagram>
</mxfile>
